<mxfile host="app.diagrams.net" modified="2024-06-17T08:55:15.633Z" agent="Mozilla/5.0 (Windows NT 10.0; Win64; x64) AppleWebKit/537.36 (KHTML, like Gecko) Chrome/125.0.0.0 Safari/537.36" etag="_RwFDKybd1IjLXKjLXas" version="24.5.4" type="device">
  <diagram name="Trang-1" id="uBME8zK6VUrPqsOVn5ti">
    <mxGraphModel dx="1034" dy="446" grid="1" gridSize="10" guides="1" tooltips="1" connect="1" arrows="1" fold="1" page="1" pageScale="1" pageWidth="827" pageHeight="1169" math="0" shadow="0">
      <root>
        <mxCell id="0" />
        <mxCell id="1" parent="0" />
        <mxCell id="L5aoFmGZR6yzBpIUDGms-1" value="User" style="shape=umlActor;verticalLabelPosition=bottom;verticalAlign=top;html=1;outlineConnect=0;" parent="1" vertex="1">
          <mxGeometry x="60" y="300" width="30" height="60" as="geometry" />
        </mxCell>
        <mxCell id="L5aoFmGZR6yzBpIUDGms-2" value="Thêm Budget Account" style="ellipse;whiteSpace=wrap;html=1;" parent="1" vertex="1">
          <mxGeometry x="340" y="280" width="140" height="70" as="geometry" />
        </mxCell>
        <mxCell id="L5aoFmGZR6yzBpIUDGms-4" value="Budget History" style="ellipse;whiteSpace=wrap;html=1;" parent="1" vertex="1">
          <mxGeometry x="340" y="450" width="140" height="70" as="geometry" />
        </mxCell>
        <mxCell id="L5aoFmGZR6yzBpIUDGms-6" value="" style="endArrow=none;html=1;rounded=0;" parent="1" source="L5aoFmGZR6yzBpIUDGms-1" target="L5aoFmGZR6yzBpIUDGms-4" edge="1">
          <mxGeometry width="50" height="50" relative="1" as="geometry">
            <mxPoint x="100" y="341" as="sourcePoint" />
            <mxPoint x="351" y="360" as="targetPoint" />
          </mxGeometry>
        </mxCell>
        <mxCell id="L5aoFmGZR6yzBpIUDGms-7" value="" style="endArrow=none;html=1;rounded=0;" parent="1" source="L5aoFmGZR6yzBpIUDGms-1" target="L5aoFmGZR6yzBpIUDGms-2" edge="1">
          <mxGeometry width="50" height="50" relative="1" as="geometry">
            <mxPoint x="110" y="351" as="sourcePoint" />
            <mxPoint x="361" y="370" as="targetPoint" />
          </mxGeometry>
        </mxCell>
        <mxCell id="L5aoFmGZR6yzBpIUDGms-8" value="Cập nhật Budget History" style="ellipse;whiteSpace=wrap;html=1;" parent="1" vertex="1">
          <mxGeometry x="550" y="360" width="140" height="70" as="geometry" />
        </mxCell>
        <mxCell id="L5aoFmGZR6yzBpIUDGms-9" value="&amp;lt;&amp;lt;include&amp;gt;&amp;gt;" style="html=1;verticalAlign=bottom;labelBackgroundColor=none;endArrow=open;endFill=0;dashed=1;rounded=0;" parent="1" source="L5aoFmGZR6yzBpIUDGms-2" target="L5aoFmGZR6yzBpIUDGms-8" edge="1">
          <mxGeometry x="-0.0396" y="4" width="160" relative="1" as="geometry">
            <mxPoint x="250" y="390" as="sourcePoint" />
            <mxPoint x="410" y="390" as="targetPoint" />
            <mxPoint as="offset" />
          </mxGeometry>
        </mxCell>
        <mxCell id="L5aoFmGZR6yzBpIUDGms-10" value="&amp;lt;&amp;lt;include&amp;gt;&amp;gt;" style="html=1;verticalAlign=bottom;labelBackgroundColor=none;endArrow=open;endFill=0;dashed=1;rounded=0;" parent="1" source="L5aoFmGZR6yzBpIUDGms-4" target="L5aoFmGZR6yzBpIUDGms-8" edge="1">
          <mxGeometry x="-0.0396" y="4" width="160" relative="1" as="geometry">
            <mxPoint x="450" y="410" as="sourcePoint" />
            <mxPoint x="571" y="340" as="targetPoint" />
            <mxPoint as="offset" />
          </mxGeometry>
        </mxCell>
        <mxCell id="L5aoFmGZR6yzBpIUDGms-14" value="Biểu đồ và thống kê" style="ellipse;whiteSpace=wrap;html=1;" parent="1" vertex="1">
          <mxGeometry x="590" y="450" width="140" height="70" as="geometry" />
        </mxCell>
        <mxCell id="L5aoFmGZR6yzBpIUDGms-15" value="" style="endArrow=block;html=1;rounded=0;align=center;verticalAlign=bottom;endFill=0;labelBackgroundColor=none;endSize=8;" parent="1" source="L5aoFmGZR6yzBpIUDGms-4" target="L5aoFmGZR6yzBpIUDGms-14" edge="1">
          <mxGeometry relative="1" as="geometry">
            <mxPoint x="396" y="641" as="sourcePoint" />
            <mxPoint x="924" y="541" as="targetPoint" />
          </mxGeometry>
        </mxCell>
        <mxCell id="L5aoFmGZR6yzBpIUDGms-16" value="" style="resizable=0;html=1;align=center;verticalAlign=top;labelBackgroundColor=none;" parent="L5aoFmGZR6yzBpIUDGms-15" connectable="0" vertex="1">
          <mxGeometry relative="1" as="geometry" />
        </mxCell>
      </root>
    </mxGraphModel>
  </diagram>
</mxfile>
